# xmcd
#
# Track frame offsets:
#	150
#	14162
#	30467
#	46333
#	67859
#	80187
#	91855
#	105243
#	128705
#
# Disc length: 1983 seconds
#
# Revision: 0
# Processed by: cddbd v1.5.2PL0 Copyright (c) Steve Scherf et al.
# Submitted via: EZCDAudioConverter 1.3.4.1
#
DISCID=6807bd09
DTITLE=Micheal Roe - ...And A Phrase or Two
DYEAR=2014
DGENRE=
TTITLE0=Looking Forward
TTITLE1=No One's Gonna Love You
TTITLE2=Lord Of The Starfields
TTITLE3=Never Been Unloved ~ Brihjt Eyes
TTITLE4=How Long Will I Love You
TTITLE5=I Sing A Song Of The Saints Of God
TTITLE6=I Thee Every Hour
TTITLE7=When I Survive The Wondrous Cross
TTITLE8=Crash Into Me
EXTD=
EXTT0=
EXTT1=
EXTT2=
EXTT3=
EXTT4=
EXTT5=
EXTT6=
EXTT7=
EXTT8=
PLAYORDER=
